<?xml version="1.0" encoding="UTF-8" standalone="no"?>
<!-- Created with Inkscape (http://www.inkscape.org/) -->

<svg
   width="1500"
   height="500"
   viewBox="0 0 1500 500"
   version="1.1"
   id="svg1"
   sodipodi:docname="logo.svg"
   xmlns:inkscape="http://www.inkscape.org/namespaces/inkscape"
   xmlns:sodipodi="http://sodipodi.sourceforge.net/DTD/sodipodi-0.dtd"
   xmlns="http://www.w3.org/2000/svg"
   xmlns:svg="http://www.w3.org/2000/svg">
  <sodipodi:namedview
     id="namedview1"
     pagecolor="#ffffff"
     bordercolor="#000000"
     borderopacity="0.25"
     inkscape:showpageshadow="2"
     inkscape:pageopacity="0.0"
     inkscape:pagecheckerboard="0"
     inkscape:deskcolor="#d1d1d1"
     inkscape:document-units="px" />
  <defs
     id="defs1" />
  <g
     inkscape:label="Layer 1"
     inkscape:groupmode="layer"
     id="layer1">
    <path
       d="m 71.051772,101.90027 h 5.690765 c 0.457293,0 0.711345,-0.25405 0.711345,-0.71134 V 73.446448 l 18.139312,27.945722 c 0.203242,0.35567 0.457294,0.5081 0.863777,0.5081 h 6.300489 c 0.40648,0 0.71135,-0.25405 0.71135,-0.71134 V 62.21735 c 0,-0.457294 -0.30487,-0.711346 -0.71135,-0.711346 h -5.741574 c -0.457294,0 -0.711346,0.254052 -0.711346,0.711346 V 89.909017 L 78.266849,62.014108 c -0.254052,-0.355672 -0.508104,-0.508104 -0.914588,-0.508104 h -6.300489 c -0.457293,0 -0.711345,0.254052 -0.711345,0.711346 v 38.97158 c 0,0.45729 0.254052,0.71134 0.711345,0.71134 z m 50.742318,0.55892 c 3.96321,0 7.26589,-1.67675 9.2983,-4.47132 l 0.20325,3.20106 c 0,0.5081 0.30486,0.71134 0.76215,0.71134 h 5.13185 c 0.4573,0 0.76216,-0.25405 0.76216,-0.71134 V 74.106983 c 0,-0.457294 -0.30486,-0.711346 -0.76216,-0.711346 h -5.13185 c -0.45729,0 -0.76215,0.203242 -0.76215,0.711346 l -0.20325,3.201055 c -2.03241,-2.794572 -5.33509,-4.471315 -9.2983,-4.471315 -8.12966,0 -13.31232,6.046437 -13.31232,14.836636 0,8.739389 5.18266,14.785831 13.31232,14.785831 z m -5.94482,-14.785831 c 0,-4.928608 3.15025,-8.332905 7.72319,-8.332905 4.57293,0 7.72318,3.404297 7.72318,8.332905 0,4.877799 -3.15025,8.282095 -7.72318,8.282095 -4.57294,0 -7.72319,-3.404296 -7.72319,-8.282095 z m 28.84302,14.226911 h 5.69076 c 0.45729,0 0.71135,-0.25405 0.71135,-0.71134 v -8.2821 l 4.31888,-4.166452 7.72318,12.651792 c 0.15243,0.35567 0.40648,0.5081 0.81297,0.5081 h 6.80859 c 0.40648,0 0.55891,-0.20324 0.55891,-0.45729 0,-0.10162 0,-0.25405 -0.10162,-0.40649 l -10.61937,-17.427963 9.50154,-9.349113 c 0.15244,-0.152431 0.25406,-0.304862 0.25406,-0.406483 0,-0.254052 -0.25406,-0.457294 -0.66054,-0.457294 h -7.36751 c -0.30486,0 -0.60972,0.101621 -0.86377,0.406484 L 151.0944,84.523115 V 61.353573 c 0,-0.457293 -0.25406,-0.711345 -0.71135,-0.711345 h -5.69076 c -0.4573,0 -0.71135,0.254052 -0.71135,0.711345 v 39.835357 c 0,0.45729 0.25405,0.71134 0.71135,0.71134 z m 39.97049,0.55892 c 3.96321,0 7.26588,-1.67675 9.2983,-4.47132 l 0.20324,3.20106 c 0,0.5081 0.30486,0.71134 0.76216,0.71134 h 5.13185 c 0.45729,0 0.76215,-0.25405 0.76215,-0.71134 V 74.106983 c 0,-0.457294 -0.30486,-0.711346 -0.76215,-0.711346 h -5.13185 c -0.4573,0 -0.76216,0.203242 -0.76216,0.711346 l -0.20324,3.201055 c -2.03242,-2.794572 -5.33509,-4.471315 -9.2983,-4.471315 -8.12967,0 -13.31233,6.046437 -13.31233,14.836636 0,8.739389 5.18266,14.785831 13.31233,14.785831 z m -5.94482,-14.785831 c 0,-4.928608 3.15025,-8.332905 7.72318,-8.332905 4.57294,0 7.72318,3.404297 7.72318,8.332905 0,4.877799 -3.15024,8.282095 -7.72318,8.282095 -4.57293,0 -7.72318,-3.404296 -7.72318,-8.282095 z m 41.54562,14.785831 c 9.14587,0 15.09068,-6.148063 15.09068,-14.785831 0,-8.688578 -5.94481,-14.836636 -15.09068,-14.836636 -9.14588,0 -15.09069,6.148058 -15.09069,14.836636 0,8.637768 5.94481,14.785831 15.09069,14.785831 z m -7.72319,-14.785831 c 0,-4.928608 3.15025,-8.332905 7.72319,-8.332905 4.57293,0 7.72318,3.404297 7.72318,8.332905 0,4.877799 -3.15025,8.282095 -7.72318,8.282095 -4.57294,0 -7.72319,-3.404296 -7.72319,-8.282095 z"
       id="text1"
       style="font-weight:bold;font-size:50.8104px;line-height:0.9;font-family:'LINE Seed JP_OTF';-inkscape-font-specification:'LINE Seed JP_OTF, Bold';letter-spacing:-1.44px;white-space:pre;stroke-width:1.13386"
       transform="matrix(6.4540881,0,0,6.4540881,-236.49023,-276.33544)"
       aria-label="Nakao" />
  </g>
</svg>
